<svg width="900" height="620" viewBox="0 0 900 620" xmlns="http://www.w3.org/2000/svg">
  <defs>
    <linearGradient id="bg" x1="0" y1="0" x2="1" y2="1"><stop stop-color="#EAF2FF"/><stop offset="1" stop-color="#FFFFFF"/></linearGradient>
    <filter id="blur"><feGaussianBlur stdDeviation="16"/></filter>
  </defs>
  <rect width="900" height="620" rx="44" fill="url(#bg)"/>
  <circle cx="690" cy="160" r="180" fill="#BFDBFE" opacity=".55" filter="url(#blur)"/>
  <circle cx="210" cy="470" r="160" fill="#DBEAFE" opacity=".8" filter="url(#blur)"/>
  <rect x="105" y="115" width="690" height="420" rx="38" fill="#fff" opacity=".78"/>
  <rect x="125" y="132" width="650" height="386" rx="30" fill="#F8FAFC"/>
  <circle cx="365" cy="260" r="54" fill="#F0C7A6"/>
  <rect x="300" y="325" width="130" height="150" rx="64" fill="#2563EB" opacity=".78"/>
  <circle cx="515" cy="275" r="40" fill="#F3C9A5"/>
  <rect x="470" y="320" width="95" height="120" rx="48" fill="#93C5FD"/>
  <path d="M280 465 C368 410 475 408 575 462 C650 502 725 488 775 448 L775 518 L125 518 L125 482 C180 507 230 494 280 465Z" fill="#fff" opacity=".78"/>
  <rect x="585" y="138" width="142" height="86" rx="24" fill="#fff" stroke="#BFDBFE"/>
  <circle cx="620" cy="178" r="18" fill="#DBEAFE"/>
  <rect x="650" y="162" width="54" height="11" rx="5.5" fill="#2563EB" opacity=".45"/>
  <rect x="650" y="184" width="42" height="9" rx="4.5" fill="#93C5FD" opacity=".7"/>
</svg>